<?xml version="1.0" encoding="UTF-8" standalone="no"?>
<!-- Created with Inkscape (http://www.inkscape.org/) -->

<svg
   xmlns:dc="http://purl.org/dc/elements/1.1/"
   xmlns:cc="http://creativecommons.org/ns#"
   xmlns:rdf="http://www.w3.org/1999/02/22-rdf-syntax-ns#"
   xmlns:svg="http://www.w3.org/2000/svg"
   xmlns="http://www.w3.org/2000/svg"
   xmlns:xlink="http://www.w3.org/1999/xlink"
   xmlns:sodipodi="http://sodipodi.sourceforge.net/DTD/sodipodi-0.dtd"
   xmlns:inkscape="http://www.inkscape.org/namespaces/inkscape"
   width="678.3584"
   height="259.4371"
   id="svg2"
   version="1.1"
   inkscape:version="0.48.1 "
   sodipodi:docname="android-logos.svg">
  <defs
     id="defs4">
    <linearGradient
       id="linearGradient3920">
      <stop
         style="stop-color:#07ace6;stop-opacity:1;"
         offset="0"
         id="stop3922" />
      <stop
         id="stop3930"
         offset="0.5"
         style="stop-color:#016192;stop-opacity:1;" />
      <stop
         style="stop-color:#07ace6;stop-opacity:1;"
         offset="1"
         id="stop3932" />
    </linearGradient>
    <linearGradient
       id="linearGradient3912">
      <stop
         style="stop-color:#004877;stop-opacity:1;"
         offset="0"
         id="stop3914" />
      <stop
         style="stop-color:#004877;stop-opacity:0;"
         offset="1"
         id="stop3916" />
    </linearGradient>
    <linearGradient
       id="linearGradient3904">
      <stop
         style="stop-color:#1cade1;stop-opacity:1;"
         offset="0"
         id="stop3906" />
      <stop
         style="stop-color:#1cade1;stop-opacity:0;"
         offset="1"
         id="stop3908" />
    </linearGradient>
    <linearGradient
       id="linearGradient3894">
      <stop
         style="stop-color:#365297;stop-opacity:0;"
         offset="0"
         id="stop3896" />
      <stop
         id="stop3902"
         offset="0.5"
         style="stop-color:#4c6ebe;stop-opacity:0.49803922;" />
      <stop
         style="stop-color:#000000;stop-opacity:0;"
         offset="1"
         id="stop3898" />
    </linearGradient>
    <linearGradient
       inkscape:collect="always"
       xlink:href="#linearGradient3920"
       id="linearGradient3926"
       x1="180.48215"
       y1="493.74612"
       x2="271.77231"
       y2="493.74612"
       gradientUnits="userSpaceOnUse"
       gradientTransform="matrix(1.0046123,0,0,1.0147059,85.748192,-7.4060599)" />
    <linearGradient
       inkscape:collect="always"
       xlink:href="#linearGradient3920-1"
       id="linearGradient3926-2"
       x1="180.48215"
       y1="493.74612"
       x2="271.77231"
       y2="493.74612"
       gradientUnits="userSpaceOnUse" />
    <linearGradient
       id="linearGradient3920-1">
      <stop
         style="stop-color:#07ace6;stop-opacity:1;"
         offset="0"
         id="stop3922-1" />
      <stop
         id="stop3930-5"
         offset="0.5"
         style="stop-color:#016192;stop-opacity:1;" />
      <stop
         style="stop-color:#07ace6;stop-opacity:1;"
         offset="1"
         id="stop3932-8" />
    </linearGradient>
    <linearGradient
       gradientTransform="matrix(1.0041954,0,0,1,85.864889,38.080354)"
       y2="493.74612"
       x2="271.77231"
       y1="493.74612"
       x1="180.48215"
       gradientUnits="userSpaceOnUse"
       id="linearGradient3950"
       xlink:href="#linearGradient3920-1"
       inkscape:collect="always" />
    <linearGradient
       inkscape:collect="always"
       xlink:href="#linearGradient3920-16"
       id="linearGradient3926-3"
       x1="180.48215"
       y1="493.74612"
       x2="271.77231"
       y2="493.74612"
       gradientUnits="userSpaceOnUse" />
    <linearGradient
       id="linearGradient3920-16">
      <stop
         style="stop-color:#07ace6;stop-opacity:1;"
         offset="0"
         id="stop3922-14" />
      <stop
         id="stop3930-6"
         offset="0.5"
         style="stop-color:#016192;stop-opacity:1;" />
      <stop
         style="stop-color:#07ace6;stop-opacity:1;"
         offset="1"
         id="stop3932-0" />
    </linearGradient>
    <linearGradient
       inkscape:collect="always"
       xlink:href="#linearGradient3920-16"
       id="linearGradient4020"
       gradientUnits="userSpaceOnUse"
       gradientTransform="translate(86.648904,74.708356)"
       x1="180.48215"
       y1="493.74612"
       x2="271.77231"
       y2="493.74612" />
    <linearGradient
       inkscape:collect="always"
       xlink:href="#linearGradient3920"
       id="linearGradient5532"
       gradientUnits="userSpaceOnUse"
       gradientTransform="matrix(1.0046123,0,0,1.0147059,85.748192,-7.4060599)"
       x1="180.48215"
       y1="493.74612"
       x2="271.77231"
       y2="493.74612" />
    <linearGradient
       inkscape:collect="always"
       xlink:href="#linearGradient3920-1"
       id="linearGradient5534"
       gradientUnits="userSpaceOnUse"
       gradientTransform="matrix(1.0041954,0,0,1,85.864889,38.080354)"
       x1="180.48215"
       y1="493.74612"
       x2="271.77231"
       y2="493.74612" />
    <linearGradient
       inkscape:collect="always"
       xlink:href="#linearGradient3920-16"
       id="linearGradient5536"
       gradientUnits="userSpaceOnUse"
       gradientTransform="translate(86.648904,74.708356)"
       x1="180.48215"
       y1="493.74612"
       x2="271.77231"
       y2="493.74612" />
    <linearGradient
       inkscape:collect="always"
       xlink:href="#linearGradient3920"
       id="linearGradient5581"
       gradientUnits="userSpaceOnUse"
       gradientTransform="matrix(1.0046123,0,0,1.0147059,85.748192,-7.4060599)"
       x1="180.48215"
       y1="493.74612"
       x2="271.77231"
       y2="493.74612" />
    <linearGradient
       inkscape:collect="always"
       xlink:href="#linearGradient3920-1"
       id="linearGradient5583"
       gradientUnits="userSpaceOnUse"
       gradientTransform="matrix(1.0041954,0,0,1,85.864889,38.080354)"
       x1="180.48215"
       y1="493.74612"
       x2="271.77231"
       y2="493.74612" />
    <linearGradient
       inkscape:collect="always"
       xlink:href="#linearGradient3920-16"
       id="linearGradient5585"
       gradientUnits="userSpaceOnUse"
       gradientTransform="translate(86.648904,74.708356)"
       x1="180.48215"
       y1="493.74612"
       x2="271.77231"
       y2="493.74612" />
  </defs>
  <sodipodi:namedview
     id="base"
     pagecolor="#ffffff"
     bordercolor="#666666"
     borderopacity="1.0"
     inkscape:pageopacity="0.0"
     inkscape:pageshadow="2"
     inkscape:zoom="0.98994949"
     inkscape:cx="310.99315"
     inkscape:cy="139.33395"
     inkscape:document-units="px"
     inkscape:current-layer="layer1"
     showgrid="false"
     fit-margin-top="5"
     fit-margin-left="5"
     fit-margin-right="5"
     fit-margin-bottom="5"
     inkscape:window-width="1024"
     inkscape:window-height="538"
     inkscape:window-x="-8"
     inkscape:window-y="-8"
     inkscape:window-maximized="1" />
  <metadata
     id="metadata7">
    <rdf:RDF>
      <cc:Work
         rdf:about="">
        <dc:format>image/svg+xml</dc:format>
        <dc:type
           rdf:resource="http://purl.org/dc/dcmitype/StillImage" />
        <dc:title></dc:title>
      </cc:Work>
    </rdf:RDF>
  </metadata>
  <g
     inkscape:label="Layer 1"
     inkscape:groupmode="layer"
     id="layer1"
     transform="translate(237.99108,-371.71716)">
    <g
       id="g5521"
       transform="translate(0.16613414,-4.3049151)">
      <path
         style="fill:#cfd1f2"
         d="m 311.44741,628.76431 c -0.52229,-1.32117 -1.85,-7.25171 -2.95046,-13.17898 -2.29135,-12.34157 -3.80657,-15.26831 -8.41179,-16.24784 -12.40447,-2.63845 -27.37456,-13.85149 -32.51231,-24.35268 -2.64988,-5.41616 -2.73129,-6.10412 -2.95463,-24.96916 -0.12633,-10.66975 -0.46095,-19.63081 -0.74361,-19.91347 -0.28267,-0.28267 -4.36273,3.12926 -9.0668,7.58206 -9.05554,8.57182 -12.19185,10.02236 -18.9349,8.75736 -7.34323,-1.3776 -12.78332,-10.53151 -10.71358,-18.02749 0.51892,-1.87938 0.68815,-3.6724 0.37605,-3.98449 -0.31209,-0.31209 -4.42993,-0.56995 -9.15077,-0.57302 -4.72083,-0.003 -10.37318,-0.50248 -12.56078,-1.1098 -7.43895,-2.06522 -13.49908,-10.58757 -13.51697,-19.00889 -0.008,-3.85248 2.73497,-10.96852 5.27822,-13.69227 5.16253,-5.52892 5.8915,-5.64535 38.7162,-6.18346 l 30.5,-0.5 0.65278,-6.59927 c 0.89624,-9.06046 3.73952,-14.17205 12.5855,-22.62593 l 7.56032,-7.2252 -2.70768,-4.09157 c -3.57597,-5.40366 -3.32657,-10.31487 0.5466,-10.7636 2.1256,-0.24626 3.37726,0.62715 6.44884,4.5 5.45747,6.88114 6.02999,7.24866 9.72236,6.24115 4.68572,-1.27856 15.12969,-1.55038 23.75046,-0.61814 l 7.55917,0.81744 3.96648,-5.31744 c 3.23913,-4.34237 4.51189,-5.31744 6.94082,-5.31744 2.51238,0 3.02412,0.43364 3.29482,2.7919 0.19588,1.70652 -0.73542,4.59363 -2.39555,7.42643 l -2.71602,4.63453 2.89555,2.35565 c 11.43644,9.30401 16.46865,17.22165 17.33426,27.27355 l 0.56129,6.51794 30.5,0.5 c 32.0283,0.52505 32.57944,0.60333 37.84501,5.37496 3.9349,3.56578 5.50682,7.68328 5.58334,14.62504 0.0863,7.8268 -2.02937,12.07024 -8.16935,16.38558 -3.78811,2.66238 -5.03268,2.9497 -14.45203,3.33647 -13.28115,0.54532 -12.89134,0.38852 -11.6992,4.70609 2.10496,7.62354 -3.27143,16.76153 -10.6794,18.15128 -6.85695,1.28637 -10.08066,-0.20056 -19.00048,-8.76394 -5.52719,-5.30632 -8.55933,-7.59185 -8.87305,-6.68821 -0.26212,0.755 -0.61152,9.69773 -0.77645,19.87273 -0.36898,22.76406 -1.27666,25.45439 -12.00134,35.57151 -7.12264,6.71914 -10.16411,8.42703 -21.97016,12.33702 -7.81045,2.58671 -7.80984,2.58561 -10.76771,19.62581 -2.00048,11.5247 -3.32566,14.3326 -4.89305,10.36779 z"
         id="path3028"
         inkscape:connector-curvature="0" />
      <path
         style="fill:#acd2ea"
         d="m 313.03189,627.19931 c -0.27791,-0.46042 -1.4712,-5.78713 -2.65175,-11.83713 -1.18055,-6.05 -2.92477,-12.07109 -3.87606,-13.38021 -1.05529,-1.45225 -4.34205,-3.26007 -8.43054,-4.63705 -13.58653,-4.57589 -24.1478,-12.97255 -28.90757,-22.98274 -2.82169,-5.93426 -2.85296,-6.205 -2.85374,-24.7089 -6.7e-4,-15.78385 -0.27439,-19.26967 -1.75079,-22.29567 l -1.75,-3.58677 -15,0.35483 c -8.25,0.19517 -15.7875,0.71386 -16.75,1.15267 -1.41156,0.64352 -1.75,0.31659 -1.75,-1.69048 0,-1.70283 1.18375,-3.38655 3.75,-5.33385 5.55162,-4.21264 29.25,-28.35647 29.25,-29.79981 0,-0.68386 1.06517,-2.24407 2.36706,-3.46713 1.84717,-1.73533 2.47717,-3.5955 2.8684,-8.4695 0.27575,-3.43517 1.29161,-7.80043 2.25747,-9.70058 2.6559,-5.22494 8.29642,-11.78703 12.55288,-14.60382 5.09878,-3.37422 5.44894,-4.83104 2.40828,-10.01954 -5.31955,-9.07713 -0.28324,-13.00977 5.94119,-4.63922 5.3651,7.21495 5.67573,7.49724 7.45731,6.77721 4.49103,-1.81506 15.16038,-2.37646 24.03257,-1.26456 l 9.38516,1.17619 2.61484,-3.09831 c 1.43816,-1.70407 3.44294,-4.29079 4.45507,-5.74826 1.21655,-1.75185 2.5722,-2.54566 4,-2.34223 3.21415,0.45796 3.20579,4.03803 -0.0229,9.81003 l -2.81733,5.03654 3.5,2.66764 c 10.90694,8.31308 16.97302,17.91318 16.99023,26.88853 0.01,5.15573 1.30055,7.3205 5.18215,8.69182 1.02616,0.36253 1.48702,1.29961 1.19269,2.42513 -0.35225,1.34701 3.58878,5.83584 14.83485,16.89691 8.42298,8.28444 15.86229,15.24903 16.53178,15.47687 0.73895,0.25148 0.97918,1.3206 0.61136,2.72082 -0.44894,1.70902 -1.02521,2.10219 -2.22448,1.51766 -1.98231,-0.96618 -25.60323,-1.67038 -28.83362,-0.8596 -1.97924,0.49675 -2.16766,0.88605 -1.25457,2.59217 0.97321,1.81846 0.83395,1.94726 -1.47797,1.36701 -1.40383,-0.35234 -2.62174,-0.47933 -2.70646,-0.28221 -0.0847,0.19713 -0.42223,9.80841 -0.75,21.35841 -0.59306,20.89797 -0.61033,21.02594 -3.55352,26.33936 -5.56659,10.04949 -16.33484,17.99951 -30.16708,22.27185 -7.5734,2.33919 -7.5985,2.38168 -10.56507,17.88879 -1.93504,10.11495 -3.01709,13.11441 -4.08984,11.33713 z M 192.63151,504.86218 c 0,-3.575 0.1815,-5.0375 0.40333,-3.25 0.22182,1.7875 0.22182,4.7125 0,6.5 -0.22183,1.7875 -0.40333,0.325 -0.40333,-3.25 z m 242,-1 c 0,-3.575 0.1815,-5.0375 0.40333,-3.25 0.22182,1.7875 0.22182,4.7125 0,6.5 -0.22183,1.7875 -0.40333,0.325 -0.40333,-3.25 z"
         id="path3026"
         inkscape:connector-curvature="0" />
      <path
         style="fill:#abb5e9"
         d="m 311.89871,622.73018 c -0.27495,-1.3024 -1.23007,-6.193 -2.1225,-10.868 -2.3385,-12.25033 -2.91332,-13.11903 -9.69328,-14.64892 -12.73713,-2.87412 -24.8917,-11.73079 -29.67402,-21.62257 -3.03341,-6.27433 -4.03515,-14.74159 -4.0749,-34.44333 -0.0302,-14.98922 -0.17892,-16.29306 -1.96698,-17.25 -1.10309,-0.59035 -8.83782,-1.03518 -18,-1.03518 -8.83616,0 -16.06574,-0.35306 -16.06574,-0.78457 0,-0.43152 8.46444,-9.20652 18.80987,-19.5 l 18.80987,-18.71543 44.80583,0 44.80583,0 18.8843,18.69308 c 10.38637,10.28119 18.8843,19.05619 18.8843,19.5 0,0.4438 -7.22958,0.80692 -16.06574,0.80692 -9.16218,0 -16.89691,0.44483 -18,1.03518 -1.81018,0.96878 -1.93426,2.27816 -1.93426,20.41091 0,16.0366 -0.31851,20.3991 -1.8482,25.31401 -2.22456,7.14752 -6.72326,13.94042 -12.00006,18.11972 -5.19619,4.11545 -15.48742,8.89801 -20.89047,9.70825 -5.75697,0.86331 -6.73408,2.55185 -9.09161,15.71113 -2.05448,11.4677 -2.76791,13.37874 -3.57224,9.5688 z M 269.30129,482.13329 c -2.4091,-0.91706 -3.00988,-2.53643 -2.32655,-6.27111 1.63637,-8.94339 7.04558,-17.05194 15.46587,-23.18375 3.22337,-2.34732 5.86068,-4.50975 5.86068,-4.8054 0,-0.29565 -1.61001,-2.92827 -3.5778,-5.85027 -3.70324,-5.499 -3.88518,-8.16058 -0.55783,-8.16058 1.21409,0 3.09604,1.82158 5.08631,4.92314 1.73754,2.70772 3.69695,5.36138 4.35424,5.89702 0.78585,0.64041 3.93451,0.44941 9.19508,-0.55778 6.66184,-1.27547 9.42179,-1.33461 16.5,-0.35354 4.675,0.64798 9.36554,1.27107 10.42343,1.38465 1.33064,0.14287 3.1449,-1.5656 5.88677,-5.54349 2.46907,-3.58212 4.67766,-5.75 5.85796,-5.75 3.31968,0 3.08003,2.65697 -0.76151,8.44274 -2.14209,3.22622 -3.34605,5.96513 -2.82154,6.41878 0.50319,0.43521 3.3432,2.53105 6.31113,4.65741 6.19617,4.43921 12.27324,13.12571 14.01107,20.02725 1.40075,5.56288 0.78797,8.03373 -2.19043,8.8322 -2.82683,0.75783 -84.71035,0.65654 -86.71688,-0.10727 z m 26,-18.66412 c 0,-2.85455 -2.37435,-4.06577 -4.03876,-2.06028 -1.61085,1.94095 -0.47838,4.45329 2.00738,4.45329 1.47592,0 2.03138,-0.65434 2.03138,-2.39301 z m 39.5,-0.10699 c 0,-2.20918 -3.11943,-3.28057 -4.76384,-1.63616 -0.7352,0.7352 -0.65572,1.52816 0.26426,2.63667 1.74054,2.09722 4.49958,1.48374 4.49958,-1.00051 z"
         id="path3024"
         inkscape:connector-curvature="0" />
      <path
         style="fill:#3aa3ca"
         d="m 312.19178,620.86218 c -0.2731,-0.825 -1.17105,-4.97131 -1.99544,-9.21403 -2.31788,-11.92894 -2.87683,-12.64795 -12.18366,-15.67263 -9.79563,-3.18354 -17.12313,-7.76371 -22.79669,-14.24943 -6.56266,-7.50211 -7.40671,-11.19467 -8.08355,-35.36391 -1.44188,-51.48787 -1.42773,-59.50803 0.10776,-61.04352 1.23153,-1.23153 8.30742,-1.45648 45.81363,-1.45648 38.98821,0 44.54731,0.19017 45.92831,1.57117 1.36039,1.36039 1.4984,4.21114 1.02875,21.25 -0.29833,10.82335 -0.72696,28.90383 -0.95252,40.17883 -0.30054,15.02327 -0.82109,21.66231 -1.94847,24.85065 -3.55081,10.04198 -15.99557,20.46017 -29.01454,24.28968 -3.87284,1.13918 -7.76571,2.8953 -8.65083,3.90248 -0.88511,1.00718 -2.41793,5.79708 -3.40625,10.64422 -2.03962,10.00308 -3.05123,12.71535 -3.8465,10.31297 z M 267.91652,480.36496 c -1.52831,-3.98272 3.01987,-15.45209 8.68712,-21.90673 1.67944,-1.91278 5.05448,-4.74189 7.50007,-6.28692 2.4456,-1.54502 4.44735,-3.44473 4.44833,-4.22158 9.9e-4,-0.77685 -1.39589,-3.59056 -3.10417,-6.25268 -2.97904,-4.64243 -3.32466,-8.47841 -0.6846,-7.59839 0.66461,0.22154 2.98726,3.00726 5.16144,6.1905 l 3.95305,5.78771 5.08804,-0.84918 c 6.45288,-1.07696 22.66187,-1.05456 28.73036,0.0397 l 4.64234,0.83711 3.88515,-5.87116 c 3.809,-5.75609 6.50846,-7.39949 7.10095,-4.32296 0.16398,0.85151 -1.05916,3.55151 -2.71811,6 -1.65895,2.44848 -3.01285,5.12679 -3.00868,5.95179 0.004,0.825 2.30359,3.0581 5.10981,4.96245 8.77373,5.954 16.67491,19.15126 15.67879,26.18811 l -0.33258,2.34944 -44.77743,0.26031 c -39.27354,0.22832 -44.84902,0.0737 -45.35988,-1.25753 z m 28.0639,-15.07223 c 1.97703,-1.97702 0.43385,-5.43055 -2.42659,-5.43055 -2.51538,0 -4.14201,2.99486 -2.86552,5.27582 1.20112,2.14628 3.24092,2.20592 5.29211,0.15473 z m 39.07341,-1.93055 c 0,-2.52893 -0.39041,-3 -2.4863,-3 -1.60345,0 -2.60998,0.64214 -2.83458,1.80841 -0.58425,3.03378 0.65315,4.85441 3.06641,4.51173 1.76716,-0.25094 2.25447,-0.9686 2.25447,-3.32014 z"
         id="path3022"
         inkscape:connector-curvature="0" />
      <path
         inkscape:connector-curvature="0"
         id="path3834"
         d="m 282.90437,434.03125 c -0.0546,0.0165 -0.11045,0.0587 -0.15625,0.0937 -0.36639,0.28053 -0.25894,1.0589 0.21875,1.75 l 8.75,12.65625 c -2.53794,1.09555 -4.9876,2.38258 -7.28125,3.90625 -11.11184,7.38161 -16.36683,18.1322 -15.375,28.6875 l 87.71875,0 c 0.81799,-8.68754 -2.58947,-17.62966 -10.375,-24.78125 -3.57947,-3.28802 -7.77255,-5.91743 -12.34375,-7.875 l 8.15625,-11.78125 c 0.47769,-0.6911 0.55389,-1.50072 0.1875,-1.78125 -0.36639,-0.28053 -1.02231,0.0589 -1.5,0.75 l -8.4375,12.15625 c -6.31488,-2.44632 -13.26424,-3.64272 -20.21875,-3.5625 -6.4895,0.0748 -12.97802,1.28122 -18.96875,3.625 l -9,-13.03125 c -0.41798,-0.60471 -0.99295,-0.92771 -1.375,-0.8125 z m 49.84375,23.1875 c 1.81251,-0.0264 3.64023,0.71896 4.90625,2.1875 2.23052,2.58733 1.93811,6.45455 -0.65625,8.6875 l -0.0625,0.0625 c -2.64664,2.22019 -6.62429,1.92324 -8.875,-0.6875 -2.25071,-2.61074 -1.92789,-6.52981 0.71875,-8.75 1.1579,-0.97133 2.55902,-1.47947 3.96875,-1.5 z m -39.59375,0.40625 c 1.81251,-0.0264 3.64023,0.71896 4.90625,2.1875 2.23052,2.58733 1.93811,6.45455 -0.65625,8.6875 l -0.0625,0.0625 c -2.64664,2.22019 -6.62429,1.89199 -8.875,-0.71875 -2.25071,-2.61074 -1.92789,-6.52981 0.71875,-8.75 1.1579,-0.97133 2.55902,-1.44822 3.96875,-1.46875 z"
         style="fill:#000000;fill-opacity:1;fill-rule:nonzero;stroke:#000000;stroke-width:1.15419412;stroke-opacity:1" />
      <path
         inkscape:connector-curvature="0"
         id="path3881"
         d="m 267.62312,483.625 0,79.5 c -0.35846,7.45238 3.15186,15.02854 10.75,21.15625 16.20936,13.07244 44.81421,14.6481 63.875,3.53125 l 0.4375,-0.25 c 10.18693,-6.09591 15.42688,-14.64286 15.5,-23.25 l 0.0312,0 0,-80.6875 -90.59375,0 z"
         style="fill:#000000;fill-opacity:1;fill-rule:nonzero;stroke:none" />
      <rect
         ry="0"
         rx="0"
         y="483.58984"
         x="267.56506"
         height="20.022326"
         width="90.706619"
         id="rect3892"
         style="fill:url(#linearGradient5581);fill-opacity:1;fill-rule:nonzero;stroke:none" />
      <rect
         ry="0"
         rx="0"
         y="521.96039"
         x="267.60632"
         height="19.732147"
         width="90.668983"
         id="rect3892-7"
         style="fill:url(#linearGradient5583);fill-opacity:1;fill-rule:nonzero;stroke:none" />
      <path
         sodipodi:nodetypes="ccccc"
         inkscape:connector-curvature="0"
         id="rect3892-71"
         d="m 267.61634,558.59375 c 0.0115,5.31096 -0.89202,14.16337 4.90857,19.71875 l 80.71845,0 c 6.08511,-9.31559 4.92623,-12.18948 4.98722,-19.71875 z"
         style="fill:url(#linearGradient5585);fill-opacity:1;fill-rule:nonzero;stroke:none" />
    </g>
    <path
       d="m 8.5821469,502.20229 0,0 c 0,-5.39115 4.3547861,-9.76155 9.7266651,-9.76155 l 0,0 0,0 c 2.579681,0 5.053691,1.02844 6.877793,2.85911 1.824101,1.83063 2.848881,4.31354 2.848881,6.90244 l 0,42.2887 c 0,5.39116 -4.354768,9.76157 -9.726674,9.76157 l 0,0 0,0 c -5.371879,0 -9.7266651,-4.37041 -9.7266651,-9.76157 z"
       id="path4890"
       inkscape:connector-curvature="0"
       style="fill:#a4c639;fill-rule:nonzero" />
    <path
       d="m 50.778422,550.64056 0,0 c 0,-5.39115 4.354777,-9.76158 9.726674,-9.76158 l 0,0 0,0 c 2.579681,0 5.053683,1.02847 6.877775,2.85911 1.82411,1.83067 2.848872,4.31355 2.848872,6.90247 l 0,42.28867 c 0,5.3912 -4.354759,9.7616 -9.726647,9.7616 l 0,0 0,0 c -5.371897,0 -9.726674,-4.3704 -9.726674,-9.7616 z"
       id="path4892"
       inkscape:connector-curvature="0"
       style="fill:#a4c639;fill-rule:nonzero" />
    <path
       d="m 84.510474,550.64056 0,0 c 0,-5.39115 4.354777,-9.76158 9.726689,-9.76158 l 0,0 0,0 c 2.57966,0 5.05368,1.02847 6.877777,2.85911 1.82409,1.83067 2.84887,4.31355 2.84887,6.90247 l 0,42.28867 c 0,5.3912 -4.354777,9.7616 -9.726647,9.7616 l 0,0 0,0 c -5.371912,0 -9.726689,-4.3704 -9.726689,-9.7616 z"
       id="path4894"
       inkscape:connector-curvature="0"
       style="fill:#a4c639;fill-rule:nonzero" />
    <path
       d="m 126.45406,502.20229 0,0 c 0,-5.39115 4.35481,-9.76155 9.72669,-9.76155 l 0,0 0,0 c 2.57964,0 5.05365,1.02844 6.87775,2.85911 1.8241,1.83063 2.84888,4.31354 2.84888,6.90244 l 0,42.2887 c 0,5.39116 -4.35475,9.76157 -9.72663,9.76157 l 0,0 0,0 c -5.37188,0 -9.72669,-4.37041 -9.72669,-9.76157 z"
       id="path4896"
       inkscape:connector-curvature="0"
       style="fill:#a4c639;fill-rule:nonzero" />
    <path
       d="m 32.07998,490.30338 0,0 c 0.189995,-22.66322 20.449276,-40.92956 45.337871,-40.87787 24.888589,0.0518 45.056159,18.40205 45.132569,41.06584 l -45.235744,0.12647 z"
       id="path4898"
       inkscape:connector-curvature="0"
       style="fill:#a4c639;fill-rule:nonzero" />
    <path
       d="m 110.74102,570.4 -66.87273,0 c -3.061553,0 -5.997727,-1.22055 -8.162584,-3.39316 -2.164847,-2.17261 -3.381042,-5.11931 -3.381042,-8.19185 l 0,-64.22849 c 0,-4.2e-4 3.36e-4,-5.3e-4 5.19e-4,-5.3e-4 l 89.959287,5.3e-4 0,0 c 4.2e-4,0 0,3.2e-4 0,5.2e-4 l 0,64.22775 0,0 c 0,6.39825 -5.16834,11.58502 -11.54365,11.58502 z"
       id="path4900"
       inkscape:connector-curvature="0"
       style="fill:#a4c639;fill-rule:nonzero" />
    <path
       d="m 104.13182,440.52777 0,0 c 0.38642,-0.6689 1.24141,-0.89926 1.90969,-0.51453 l 0,0 0,0 c 0.32095,0.18474 0.55499,0.48954 0.6507,0.84731 0.0957,0.35776 0.0452,0.73921 -0.14038,1.06042 l -8.071297,13.97112 c -0.38644,0.66888 -1.24143,0.89924 -1.90973,0.51451 l 0,0 0,0 c -0.66825,-0.38472 -0.89672,-1.23884 -0.51031,-1.90772 z"
       id="path4902"
       inkscape:connector-curvature="0"
       style="fill:#a4c639;fill-rule:nonzero" />
    <path
       d="m 50.464551,440.52777 0,0 c -0.386437,-0.6689 -1.24144,-0.89926 -1.909709,-0.51453 l 0,0 0,0 c -0.32092,0.18474 -0.554975,0.48954 -0.650692,0.84731 -0.0957,0.35776 -0.04526,0.73921 0.140361,1.06042 l 8.07131,13.97112 c 0.386438,0.66888 1.241441,0.89924 1.90971,0.51451 l 0,0 0,0 c 0.668269,-0.38472 0.896759,-1.23884 0.510322,-1.90772 z"
       id="path4904"
       inkscape:connector-curvature="0"
       style="fill:#a4c639;fill-rule:nonzero" />
    <path
       d="m 52.918289,470.49212 0,0 c 0,-2.09031 1.698167,-3.78486 3.792944,-3.78486 l 0,0 c 1.005946,0 1.970682,0.39877 2.681991,1.10857 0.711328,0.7098 1.110934,1.6725 1.110934,2.67629 l 0,0 c 0,2.09035 -1.698148,3.78488 -3.792925,3.78488 l 0,0 c -2.094777,0 -3.792944,-1.69453 -3.792944,-3.78488 z"
       id="path4906"
       inkscape:connector-curvature="0"
       style="fill:#ffffff;fill-rule:nonzero" />
    <path
       d="m 93.977893,470.49212 0,0 c 0,-2.09031 1.69815,-3.78486 3.79294,-3.78486 l 0,0 c 1.00596,0 1.9707,0.39877 2.681997,1.10857 0.7113,0.7098 1.11094,1.6725 1.11094,2.67629 l 0,0 c 0,2.09035 -1.698187,3.78488 -3.792937,3.78488 l 0,0 c -2.09479,0 -3.79294,-1.69453 -3.79294,-3.78488 z"
       id="path4908"
       inkscape:connector-curvature="0"
       style="fill:#ffffff;fill-rule:nonzero" />
    <path
       d="m 77.021651,579.76637 0,0 c 0,-8.33921 6.73613,-15.09952 15.045572,-15.09952 l 0,0 0,0 c 3.99031,0 7.81721,1.59087 10.638807,4.42257 2.8216,2.83169 4.40668,6.67233 4.40668,10.67695 l 0,19.52114 0,0 c 0,8.33923 -6.73608,15.09951 -15.045487,15.09951 l 0,0 0,0 c -8.309442,0 -15.045572,-6.76028 -15.045572,-15.09951 z"
       id="path5058"
       inkscape:connector-curvature="0"
       style="fill:#b37653;fill-rule:nonzero" />
    <path
       d="m 47.831584,579.54081 0,0 c 0,-8.21468 6.635486,-14.87396 14.820774,-14.87396 l 0,0 0,0 c 3.930709,0 7.700402,1.56706 10.479868,4.35647 2.779429,2.78939 4.340888,6.57266 4.340888,10.51749 l 0,19.97227 0,0 c 0,8.21466 -6.635468,14.87394 -14.820756,14.87394 l 0,0 0,0 c -8.185288,0 -14.820774,-6.65928 -14.820774,-14.87394 z"
       id="path5060"
       inkscape:connector-curvature="0"
       style="fill:#b37653;fill-rule:nonzero" />
    <path
       d="m 27.623858,492.7954 0,0 c -2.117299,-18.09704 6.752405,-35.76284 22.84736,-45.50505 16.094946,-9.7422 36.594211,-9.85332 52.803732,-0.28621 16.20948,9.56708 25.28821,27.13558 23.38578,45.25441 l -49.548234,-4.75343 z"
       id="path5062"
       inkscape:connector-curvature="0"
       style="fill:#b37653;fill-rule:nonzero" />
    <path
       d="m 113.27158,576.31787 -72.318126,0 c -3.605126,0 -7.062587,-1.43728 -9.611795,-3.99564 -2.549227,-2.55833 -3.981354,-6.0282 -3.981354,-9.64629 l 0,-75.6318 c 0,-4.6e-4 3.82e-4,-8.2e-4 8.19e-4,-8.2e-4 l 99.503546,8.2e-4 0,0 c 4.7e-4,0 0,3.7e-4 0,8.3e-4 l 0,75.63096 0,0 c 0,7.53422 -6.08583,13.64194 -13.5931,13.64194 z"
       id="path5064"
       inkscape:connector-curvature="0"
       style="fill:#b37653;fill-rule:nonzero" />
    <path
       d="m 100.49361,432.03258 0,0 c 2.12741,-3.67805 6.83092,-4.9427 10.50562,-2.82466 l 0,0 0,0 c 1.76465,1.01712 3.05116,2.69421 3.57661,4.66235 0.52536,1.96816 0.24659,4.06613 -0.775,5.83238 l -6.02279,10.41274 c -2.12741,3.67806 -6.83094,4.9427 -10.505637,2.82467 l 0,0 0,0 c -3.67469,-2.11803 -4.92898,-6.81669 -2.80155,-10.49474 z"
       id="path5066"
       inkscape:connector-curvature="0"
       style="fill:#b37653;fill-rule:nonzero" />
    <path
       d="m 55.518571,432.25166 0,0 c -2.175085,-3.76582 -6.99106,-5.06795 -10.756782,-2.90839 l 0,0 0,0 c -1.808364,1.03706 -3.127735,2.75003 -3.667865,4.76209 -0.540131,2.01205 -0.256769,4.15836 0.787746,5.96677 l 6.299731,10.90703 c 2.175066,3.76582 6.99105,5.06793 10.756763,2.90838 l 0,0 0,0 c 3.765732,-2.15957 5.055194,-6.96304 2.880128,-10.72885 z"
       id="path5068"
       inkscape:connector-curvature="0"
       style="fill:#b37653;fill-rule:nonzero" />
    <path
       d="m 123.94745,504.64007 0,0 c 0,-7.46713 6.03169,-13.52038 13.47207,-13.52038 l 0,0 0,0 c 3.57303,0 6.99968,1.42445 9.52622,3.96001 2.52649,2.53559 3.94585,5.97455 3.94585,9.56037 l 0,40.39577 c 0,7.46712 -6.03163,13.5204 -13.47207,13.5204 l 0,0 0,0 c -7.44038,0 -13.47207,-6.05328 -13.47207,-13.5204 z"
       id="path5070"
       inkscape:connector-curvature="0"
       style="fill:#b37653;fill-rule:nonzero" />
    <path
       d="m 3.5731629,504.64007 0,0 c 0,-7.46713 6.03166,-13.52038 13.4720691,-13.52038 l 0,0 0,0 c 3.573014,0 6.999675,1.42445 9.526179,3.96001 2.526486,2.53559 3.945863,5.97455 3.945863,9.56037 l 0,40.39577 c 0,7.46712 -6.031642,13.5204 -13.472042,13.5204 l 0,0 0,0 c -7.4404091,0 -13.4720691,-6.05328 -13.4720691,-13.5204 z"
       id="path5072"
       inkscape:connector-curvature="0"
       style="fill:#b37653;fill-rule:nonzero" />
    <path
       d="m 102.55819,479.86285 0,0 c -15.959451,11.54856 -35.446896,11.36908 -51.277414,-0.47231"
       id="path5074"
       inkscape:connector-curvature="0"
       style="fill:none;stroke:#ffffff;stroke-width:3;stroke-linecap:round;stroke-linejoin:round;stroke-miterlimit:4;stroke-dasharray:none" />
    <path
       d="m 50.778777,463.37308 0,0 c 0,-2.31278 1.879191,-4.18766 4.197268,-4.18766 l 0,0 c 1.113192,0 2.180776,0.4412 2.967939,1.22654 0.787128,0.78534 1.229356,1.85049 1.229356,2.96112 l 0,0 c 0,2.31277 -1.879191,4.18766 -4.197295,4.18766 l 0,0 c -2.318077,0 -4.197268,-1.87489 -4.197268,-4.18766 z"
       id="path5076"
       inkscape:connector-curvature="0"
       style="fill:#ffffff;fill-rule:nonzero;stroke:#ffffff;stroke-width:1;stroke-linecap:butt;stroke-linejoin:round" />
    <path
       d="m 96.650043,463.37308 0,0 c 0,-2.31278 1.87917,-4.18766 4.197277,-4.18766 l 0,0 c 1.11317,0 2.18079,0.4412 2.96793,1.22654 0.78714,0.78534 1.22934,1.85049 1.22934,2.96112 l 0,0 c 0,2.31277 -1.87918,4.18766 -4.19727,4.18766 l 0,0 c -2.318107,0 -4.197277,-1.87489 -4.197277,-4.18766 z"
       id="path5078"
       inkscape:connector-curvature="0"
       style="fill:#ffffff;fill-rule:nonzero;stroke:#ffffff;stroke-width:1;stroke-linecap:butt;stroke-linejoin:round" />
    <path
       d="m 70.413004,532.38109 0,0 c 0,-3.68787 3.052691,-6.67746 6.818432,-6.67746 l 0,0 c 1.808382,0 3.542677,0.70351 4.821366,1.95577 1.278725,1.25226 1.997102,2.95072 1.997102,4.72169 l 0,0 c 0,3.68786 -3.052728,6.67749 -6.818468,6.67749 l 0,0 c -3.765741,0 -6.818432,-2.98963 -6.818432,-6.67749 z"
       id="path5080"
       inkscape:connector-curvature="0"
       style="fill:#cc0000;fill-rule:nonzero" />
    <path
       d="m 70.413004,557.81268 0,0 c 0,-3.68785 3.052691,-6.67749 6.818432,-6.67749 l 0,0 c 1.808382,0 3.542677,0.70354 4.821366,1.9558 1.278725,1.25226 1.997102,2.95071 1.997102,4.72169 l 0,0 c 0,3.68787 -3.052728,6.6775 -6.818468,6.6775 l 0,0 c -3.765741,0 -6.818432,-2.98963 -6.818432,-6.6775 z"
       id="path5082"
       inkscape:connector-curvature="0"
       style="fill:#cc0000;fill-rule:nonzero" />
    <path
       d="m 5.3185959,535.9953 c 0.623134,0.96923 2.150013,5.59634 3.738893,5.81525 1.5888991,0.21889 3.8629691,-4.56447 5.7944441,-4.50181 1.931485,0.0627 4.01863,4.90912 5.794427,4.8778 1.775806,-0.0313 3.427125,-5.0031 4.860318,-5.06578 1.43322,-0.0626 3.115759,3.90815 3.738919,4.68979"
       id="path5084"
       inkscape:connector-curvature="0"
       style="fill:none;stroke:#ffffff;stroke-width:3;stroke-linecap:round;stroke-linejoin:round;stroke-miterlimit:4;stroke-dasharray:none" />
    <path
       d="m 125.88987,540.6856 c 0.74759,-0.90654 2.99048,-5.28302 4.48569,-5.43925 1.49521,-0.15623 2.70989,4.5018 4.48567,4.5018 1.7758,0 4.29964,-4.62711 6.16906,-4.5018 1.8695,0.12536 3.55201,5.12887 5.04763,5.25376 1.49568,0.12494 3.27188,-3.75358 3.92628,-4.50431"
       id="path5086"
       inkscape:connector-curvature="0"
       style="fill:none;stroke:#ffffff;stroke-width:3;stroke-linecap:round;stroke-linejoin:round;stroke-miterlimit:4;stroke-dasharray:none" />
    <path
       d="m 49.810052,601.46813 c 0.778822,-1.00053 3.084522,-5.81562 4.67301,-6.00323 1.588462,-0.18755 3.113246,4.8778 4.857832,4.8778 1.744568,0 3.77136,-4.90909 5.609614,-4.8778 1.838226,0.0313 3.800083,4.84689 5.419764,5.06579 1.6197,0.2189 3.581976,-3.12696 4.298394,-3.75235"
       id="path5088"
       inkscape:connector-curvature="0"
       style="fill:none;stroke:#ffffff;stroke-width:3;stroke-linecap:round;stroke-linejoin:round;stroke-miterlimit:4;stroke-dasharray:none" />
    <path
       d="m 80.279437,595.8429 c 0.591923,0.96919 2.087573,5.81521 3.551575,5.81521 1.46403,0 3.394649,-5.84656 5.232475,-5.81521 1.837817,0.0314 3.924976,5.87829 5.794446,6.00321 1.86944,0.12491 3.92664,-5.19109 5.422267,-5.25375 1.49564,-0.0627 2.95967,4.06481 3.5516,4.87776"
       id="path5090"
       inkscape:connector-curvature="0"
       style="fill:none;stroke:#ffffff;stroke-width:3;stroke-linecap:round;stroke-linejoin:round;stroke-miterlimit:4;stroke-dasharray:none" />
    <path
       d="m 73.49801,509.56666 c -1.575986,0.29789 -3.467923,3.67798 -5.397013,4.40049 -1.9291,0.72248 -4.828768,0.71213 -6.177516,-0.0654 -1.348758,-0.77757 -1.545977,-2.83404 -1.914994,-4.6 -0.369026,-1.76595 -0.865461,-4.21446 -0.299151,-5.99575 0.56631,-1.78131 1.943689,-4.19748 3.697013,-4.69202 1.753333,-0.49454 5.125821,0.83907 6.822965,1.7247 1.697164,0.8857 2.263332,3.48757 3.359967,3.58923 1.096645,0.10166 1.880413,-2.94326 3.219832,-2.97919 1.339434,-0.036 3.386861,2.86629 4.816703,2.76356 1.429885,-0.10279 2.184852,-2.48787 3.762466,-3.38025 1.577614,-0.89234 4.173953,-1.99154 5.703172,-1.97379 1.529229,0.0177 2.708059,0.52185 3.472259,2.08025 0.76421,1.55843 1.25405,5.10313 1.11292,7.27018 -0.14109,2.16706 -0.74134,4.51306 -1.95961,5.73211 -1.2183,1.21907 -3.711759,1.90745 -5.350101,1.58226 -1.638369,-0.32517 -3.339732,-2.55705 -4.480013,-3.53324 -1.140272,-0.97624 -1.306611,-2.43901 -2.361588,-2.324 -1.054992,0.11509 -2.630418,2.94721 -3.968295,3.01402 -1.337887,0.0668 -2.482983,-2.91102 -4.059016,-2.61314 z"
       id="path5092"
       inkscape:connector-curvature="0"
       style="fill:#a4c639;fill-rule:nonzero" />
    <g
       id="g5412"
       transform="translate(-47.142858,0)">
      <path
         style="fill:#a4c639;fill-rule:nonzero"
         inkscape:connector-curvature="0"
         id="path4890-8"
         d="m -185.84822,500.36919 0,0 c 0,-5.9169 4.78169,-10.7135 10.68018,-10.7135 l 0,0 0,0 c 2.83257,0 5.54911,1.12874 7.55203,3.13793 2.00292,2.00915 3.12816,4.7342 3.12816,7.57557 l 0,46.41267 c 0,5.9169 -4.78167,10.71351 -10.68019,10.71351 l 0,0 0,0 c -5.89849,0 -10.68018,-4.79661 -10.68018,-10.71351 z" />
      <path
         style="fill:#a4c639;fill-rule:nonzero"
         inkscape:connector-curvature="0"
         id="path4892-2"
         d="m -139.5154,553.53114 0,0 c 0,-5.9169 4.78168,-10.71353 10.68019,-10.71353 l 0,0 0,0 c 2.83257,0 5.5491,1.12877 7.55201,3.13793 2.00293,2.00919 3.12815,4.7342 3.12815,7.5756 l 0,46.41264 c 0,5.91694 -4.78166,10.71354 -10.68016,10.71354 l 0,0 0,0 c -5.89851,0 -10.68019,-4.7966 -10.68019,-10.71354 z" />
      <path
         style="fill:#a4c639;fill-rule:nonzero"
         inkscape:connector-curvature="0"
         id="path4894-3"
         d="m -102.47656,553.53114 0,0 c 0,-5.9169 4.781682,-10.71353 10.680212,-10.71353 l 0,0 0,0 c 2.83254,0 5.54909,1.12877 7.55201,3.13793 2.00291,2.00919 3.12815,4.7342 3.12815,7.5756 l 0,46.41264 c 0,5.91694 -4.78168,10.71354 -10.68016,10.71354 l 0,0 0,0 c -5.89853,0 -10.680212,-4.7966 -10.680212,-10.71354 z" />
      <path
         style="fill:#a4c639;fill-rule:nonzero"
         inkscape:connector-curvature="0"
         id="path4896-8"
         d="m -56.421198,500.36919 0,0 c 0,-5.9169 4.78172,-10.7135 10.68021,-10.7135 l 0,0 0,0 c 2.83252,0 5.54907,1.12874 7.55198,3.13793 2.00292,2.00915 3.12816,4.7342 3.12816,7.57557 l 0,46.41267 c 0,5.9169 -4.78165,10.71351 -10.68014,10.71351 l 0,0 0,0 c -5.89849,0 -10.68021,-4.79661 -10.68021,-10.71351 z" />
      <path
         style="fill:#a4c639;fill-rule:nonzero"
         inkscape:connector-curvature="0"
         id="path4898-4"
         d="m -160.04687,487.3099 0,0 c 0.20862,-24.87333 22.45394,-44.921 49.78239,-44.86426 27.328452,0.0568 49.473062,20.19661 49.556972,45.07056 l -49.670262,0.1388 z" />
      <path
         style="fill:#a4c639;fill-rule:nonzero"
         inkscape:connector-curvature="0"
         id="path4900-8"
         d="m -73.674598,575.21751 -73.428342,0 c -3.36168,0 -6.58569,-1.33958 -8.96277,-3.72406 -2.37707,-2.38449 -3.71249,-5.61855 -3.71249,-8.99072 l 0,-70.49202 c 0,-4.6e-4 3.7e-4,-5.8e-4 5.7e-4,-5.8e-4 l 98.778092,5.8e-4 0,0 c 4.6e-4,0 0,3.5e-4 0,5.7e-4 l 0,70.49121 0,0 c 0,7.0222 -5.67499,12.71479 -12.67528,12.71479 z" />
      <path
         style="fill:#a4c639;fill-rule:nonzero"
         inkscape:connector-curvature="0"
         id="path4902-9"
         d="m -80.931708,432.68019 0,0 c 0.4243,-0.73413 1.36311,-0.98695 2.0969,-0.5647 l 0,0 0,0 c 0.35241,0.20275 0.60939,0.53727 0.71449,0.92993 0.10508,0.39265 0.0496,0.8113 -0.15414,1.16384 l -8.86254,15.33357 c -0.42433,0.73411 -1.36313,0.98694 -2.09694,0.56469 l 0,0 0,0 c -0.73376,-0.42224 -0.98463,-1.35965 -0.56034,-2.09376 z" />
      <path
         style="fill:#a4c639;fill-rule:nonzero"
         inkscape:connector-curvature="0"
         id="path4904-3"
         d="m -139.86004,432.68019 0,0 c -0.42432,-0.73413 -1.36314,-0.98695 -2.09692,-0.5647 l 0,0 0,0 c -0.35238,0.20275 -0.60938,0.53727 -0.71448,0.92993 -0.10508,0.39265 -0.0497,0.8113 0.15412,1.16384 l 8.86255,15.33357 c 0.42432,0.73411 1.36314,0.98694 2.09692,0.56469 l 0,0 0,0 c 0.73378,-0.42224 0.98467,-1.35965 0.56035,-2.09376 z" />
      <path
         style="fill:#ffffff;fill-rule:nonzero"
         inkscape:connector-curvature="0"
         id="path4906-9"
         d="m -137.16576,465.56665 0,0 c 0,-2.29415 1.86464,-4.15395 4.16477,-4.15395 l 0,0 c 1.10456,0 2.16387,0.43765 2.94491,1.21667 0.78106,0.77902 1.21984,1.8356 1.21984,2.93728 l 0,0 c 0,2.2942 -1.86462,4.15398 -4.16475,4.15398 l 0,0 c -2.30013,0 -4.16477,-1.85978 -4.16477,-4.15398 z" />
      <path
         style="fill:#ffffff;fill-rule:nonzero"
         inkscape:connector-curvature="0"
         id="path4908-0"
         d="m -92.081038,465.56665 0,0 c 0,-2.29415 1.86462,-4.15395 4.16477,-4.15395 l 0,0 c 1.10457,0 2.16389,0.43765 2.94492,1.21667 0.78103,0.77902 1.21984,1.8356 1.21984,2.93728 l 0,0 c 0,2.2942 -1.86466,4.15398 -4.16476,4.15398 l 0,0 c -2.30015,0 -4.16477,-1.85978 -4.16477,-4.15398 z" />
    </g>
    <text
       xml:space="preserve"
       style="font-size:16px;font-style:normal;font-variant:normal;font-weight:normal;font-stretch:normal;text-align:center;line-height:100%;letter-spacing:0px;word-spacing:0px;writing-mode:lr-tb;text-anchor:middle;fill:#000000;fill-opacity:1;stroke:none;font-family:CMU Serif;-inkscape-font-specification:CMU Serif"
       x="-157.58934"
       y="388.52625"
       id="text5454"
       sodipodi:linespacing="100%"><tspan
         sodipodi:role="line"
         id="tspan5456"
         x="-154.93309"
         y="388.52625">Android </tspan><tspan
         sodipodi:role="line"
         x="-157.58934"
         y="404.52625"
         id="tspan5458">official logo</tspan></text>
    <text
       xml:space="preserve"
       style="font-size:16px;font-style:normal;font-variant:normal;font-weight:normal;font-stretch:normal;text-align:center;line-height:100%;letter-spacing:0px;word-spacing:0px;writing-mode:lr-tb;text-anchor:middle;fill:#000000;fill-opacity:1;stroke:none;font-family:CMU Serif;-inkscape-font-specification:CMU Serif"
       x="77.637451"
       y="388.17401"
       id="text5454-0"
       sodipodi:linespacing="100%"><tspan
         sodipodi:role="line"
         x="77.637451"
         y="388.17401"
         id="tspan5458-2">Android 2.3 logo</tspan><tspan
         sodipodi:role="line"
         x="77.637451"
         y="404.17401"
         id="tspan5488">(Gingerbread)</tspan></text>
    <text
       xml:space="preserve"
       style="font-size:16px;font-style:normal;font-variant:normal;font-weight:normal;font-stretch:normal;text-align:center;line-height:100%;letter-spacing:0px;word-spacing:0px;writing-mode:lr-tb;text-anchor:middle;fill:#000000;fill-opacity:1;stroke:none;font-family:CMU Serif;-inkscape-font-specification:CMU Serif"
       x="312.89621"
       y="388.17401"
       id="text5454-0-5"
       sodipodi:linespacing="100%"><tspan
         sodipodi:role="line"
         x="312.89621"
         y="388.17401"
         id="tspan5458-2-6">Android 3.0 logo</tspan><tspan
         sodipodi:role="line"
         x="312.89621"
         y="404.17401"
         id="tspan5488-4">(Honeycomb)</tspan></text>
  </g>
</svg>
